<svg width="36" height="50" viewBox="0 0 36 50" fill="none" xmlns="http://www.w3.org/2000/svg">
<path d="M27.9964 7.99953V11.9993H7.99756V7.99953H14.0002V3.99976H15.9971V1.99692H14.0002V0H21.9997V1.99692H19.9968V3.99976H21.9997V7.99953H27.9964Z" fill="#DEDEDE"/>
<path d="M23.9966 22.0016H15.9971V24.0045H23.9966V22.0016Z" fill="#DEDEDE"/>
<path d="M23.9966 26.0014H15.9971V28.0042H23.9966V26.0014Z" fill="#DEDEDE"/>
<path d="M7.99757 39.9976H-0.00195312V50H7.99757V39.9976Z" fill="#DEDEDE"/>
<path d="M15.9971 31.9982V34.001H17.9999V38.0008H11.9973V19.9989H33.999V15.9991H-0.00195312V38.0008H10.0004V50H36.0018V43.9974H25.9995V46.0003H11.9973V42.0005H35.9959V39.9977H31.9961V34.001H35.9959V31.9982H15.9971ZM27.9964 39.9977H23.9966V34.001H27.9964V39.9977Z" fill="#DEDEDE"/>
<path d="M35.9961 26.0014H27.9966V28.0042H35.9961V26.0014Z" fill="#DEDEDE"/>
<path d="M35.9961 22.0016H27.9966V24.0045H35.9961V22.0016Z" fill="#DEDEDE"/>
</svg>
