<svg width="25" height="27" viewBox="0 0 25 27" fill="none" xmlns="http://www.w3.org/2000/svg">
<path d="M13 4H14V27H12V26H11V25H10V15H11V13H10V15H9V16H4V13H5V12H6V11H7V10H8V9H9V8H10V7H11V6H12V5H13V4Z" fill="black"/>
<path d="M24 13H25V16H20V15H19V13H18V15H19V25H18V26H17V27H15V4H16V5H17V6H18V7H19V8H20V9H21V10H22V11H23V12H24V13Z" fill="black"/>
<path d="M9 0H10V23H8V22H7V21H6V11H7V9H6V11H5V12H0V9H1V8H2V7H3V6H4V5H5V4H6V3H7V2H8V1H9V0Z" fill="#DEDEDE"/>
<path d="M20 9H21V12H16V11H15V9H14V11H15V21H14V22H13V23H11V0H12V1H13V2H14V3H15V4H16V5H17V6H18V7H19V8H20V9Z" fill="#DEDEDE"/>
</svg>
